<svg width="339" height="69" viewBox="0 0 339 69" fill="none" xmlns="http://www.w3.org/2000/svg">
<path d="M53.4698 6.6L57.5018 8.584C54.7711 13.0213 51.5284 16.968 47.7738 20.424C44.0618 23.88 39.1124 27.3147 32.9258 30.728C34.1204 36.9147 35.5924 41.864 37.3418 45.576C39.0911 49.3307 41.3738 51.4213 44.1898 51.848V54.792C43.8484 54.8347 43.4004 54.856 42.8458 54.856C39.9871 54.856 37.2138 52.872 34.5258 48.904C31.8804 44.936 29.4911 39.0693 27.3578 31.304C25.5231 37.064 22.7284 41.6293 18.9738 45C15.2191 48.328 11.3151 49.992 7.26175 49.992C5.17108 49.992 3.44308 49.416 2.07775 48.264C0.755083 47.1547 0.09375 45.6187 0.09375 43.656C0.09375 41.6507 0.98975 39.5813 2.78175 37.448C4.57375 35.3147 7.02708 33.5227 10.1418 32.072L11.6138 34.376C7.77375 37.1067 5.85375 39.6667 5.85375 42.056C5.85375 43.208 6.23775 44.1467 7.00575 44.872C7.77375 45.5547 8.77642 45.896 10.0138 45.896C12.9151 45.896 15.4111 44.68 17.5018 42.248C19.6351 39.7733 21.5338 35.464 23.1978 29.32C25.2884 21.5973 27.4218 16.5413 29.5978 14.152C30.5791 13.0427 32.0084 11.8267 33.8857 10.504C30.9418 10.5893 27.9338 11.1013 24.8618 12.04C21.7898 12.936 19.1018 14.3013 16.7978 16.136C14.4938 17.928 13.3418 19.9333 13.3418 22.152C13.3418 25.0107 14.6431 27.2933 17.2458 29L15.9658 30.984C13.5764 29.832 11.6991 28.3387 10.3338 26.504C8.96842 24.6693 8.28575 22.7707 8.28575 20.808C8.28575 18.12 9.75775 15.5813 12.7018 13.192C15.6458 10.8027 19.2511 8.94666 23.5178 7.624C27.8271 6.30133 32.0511 5.64 36.1898 5.64C38.7498 5.64 40.0298 6.19467 40.0298 7.304C40.0298 8.02933 39.2831 8.94667 37.7898 10.056C35.0591 12.104 32.9471 14.7707 31.4538 18.056C30.0031 21.3413 28.8084 25.1813 27.8698 29.576C32.7338 27.784 37.3844 24.8187 41.8218 20.68C46.3018 16.4987 50.1844 11.8053 53.4698 6.6ZM77.8028 40.968L77.9948 42.632C77.8241 42.76 75.8401 43.528 72.0428 44.936C71.5308 47.752 70.8694 50.5253 70.0588 53.256C69.2908 56.0293 68.5014 58.12 67.6908 59.528C66.9228 60.9787 66.0054 62.408 64.9388 63.816C62.8054 66.632 59.9254 68.04 56.2988 68.04C54.5068 68.04 53.0774 67.4853 52.0108 66.376C50.9441 65.2667 50.4108 63.752 50.4108 61.832C50.4108 54.4507 56.5974 48.52 68.9708 44.04L72.4268 31.88C68.7574 37.384 65.4508 40.776 62.5068 42.056C61.0561 42.7387 59.5201 43.08 57.8988 43.08C56.3201 43.08 55.0401 42.568 54.0588 41.544C53.1201 40.52 52.6508 39.0267 52.6508 37.064C52.6508 35.1013 53.3121 32.3707 54.6348 28.872C56.0001 25.3307 57.5148 22.3653 59.1788 19.976L62.3148 21.32C62.1868 21.448 61.5894 22.5787 60.5228 24.712C58.6454 28.5947 57.7068 31.4747 57.7068 33.352C57.7068 35.2293 58.0694 36.488 58.7948 37.128C59.5201 37.768 60.5868 38.088 61.9948 38.088C63.4028 38.088 64.9814 37.256 66.7308 35.592C68.5228 33.8853 71.2748 30.536 74.9868 25.544L77.2908 26.888C76.9494 28.296 76.1814 30.856 74.9868 34.568C73.8348 38.2373 73.0454 41.0533 72.6188 43.016L77.8028 40.968ZM68.5868 45.96C65.8988 47.1973 63.5308 48.6053 61.4828 50.184C57.6428 53.0853 55.7228 55.9013 55.7228 58.632C55.7228 59.656 56.0214 60.488 56.6188 61.128C57.2161 61.768 57.9628 62.088 58.8588 62.088C63.1254 62.088 66.3681 56.712 68.5868 45.96ZM81.1913 39.368L84.3913 37.768C84.3913 38.536 84.6686 39.1973 85.2233 39.752C85.8206 40.3067 86.5033 40.584 87.2713 40.584C90.8979 40.584 95.0366 35.8053 99.6873 26.248C99.9433 25.6933 100.242 25.0747 100.583 24.392C100.925 23.6667 101.181 23.1333 101.351 22.792C101.522 22.408 101.714 21.9813 101.927 21.512C102.183 21.0427 102.375 20.7013 102.503 20.488C102.674 20.232 102.845 19.9973 103.015 19.784C103.399 19.4 103.826 19.208 104.295 19.208C104.807 19.208 105.255 19.4427 105.639 19.912C106.023 20.3813 106.215 20.936 106.215 21.576C106.215 22.1733 105.405 24.8187 103.783 29.512C102.205 34.1627 101.415 36.9787 101.415 37.96C101.415 38.9413 101.607 39.6667 101.991 40.136C102.418 40.6053 102.823 40.84 103.207 40.84C103.634 40.84 103.954 40.8187 104.167 40.776C104.381 40.7333 104.594 40.648 104.807 40.52C105.021 40.392 105.191 40.2853 105.319 40.2C105.49 40.1147 105.682 39.9653 105.895 39.752L106.343 39.24C106.471 39.1547 106.642 38.984 106.855 38.728C107.111 38.4293 107.282 38.2373 107.367 38.152L108.711 39.24C107.986 41.032 106.834 42.5467 105.255 43.784C103.719 45.0213 102.311 45.64 101.031 45.64C99.7939 45.64 98.8126 45.2133 98.0873 44.36C97.3619 43.464 96.9993 42.312 96.9993 40.904C96.9993 39.496 97.2339 37.6827 97.7033 35.464C95.7406 38.536 93.5859 40.8827 91.2393 42.504C88.8926 44.0827 86.9939 44.872 85.5433 44.872C84.0926 44.872 83.0046 44.3387 82.2793 43.272C81.5539 42.2053 81.1913 40.904 81.1913 39.368ZM141.81 37.512L143.154 38.6C142.429 40.392 141.277 41.9067 139.698 43.144C138.162 44.3813 136.754 45 135.474 45C134.237 45 133.256 44.5733 132.53 43.72C131.805 42.824 131.442 41.672 131.442 40.264C131.442 38.856 131.677 37.0427 132.146 34.824C130.141 37.9813 127.986 40.456 125.682 42.248C123.378 44.04 121.437 44.936 119.858 44.936C117.469 44.936 116.274 43.5067 116.274 40.648C116.274 37.7893 117.256 33.9493 119.218 29.128C121.224 24.264 122.653 21.4907 123.506 20.808L126.578 22.152C124.829 24.968 123.506 27.7413 122.61 30.472C121.714 33.2027 121.266 35.0373 121.266 35.976C121.266 36.872 121.544 37.5973 122.098 38.152C122.696 38.7067 123.378 38.984 124.146 38.984C125.853 38.984 127.965 37.4267 130.482 34.312C133.042 31.1547 135.645 26.4613 138.29 20.232L141.554 21.704C141.469 22.0453 140.488 24.52 138.61 29.128C136.776 33.736 135.858 36.5093 135.858 37.448C135.858 38.344 136.05 39.0267 136.434 39.496C136.861 39.9653 137.266 40.2 137.65 40.2C138.077 40.2 138.397 40.1787 138.61 40.136C138.824 40.0933 139.037 40.008 139.25 39.88C139.464 39.752 139.634 39.6453 139.762 39.56C139.933 39.4747 140.125 39.3253 140.338 39.112L140.786 38.6C140.914 38.5147 141.085 38.344 141.298 38.088C141.554 37.7893 141.725 37.5973 141.81 37.512ZM170.226 37.896L171.826 39.304C169.352 43.3573 166.728 45.384 163.954 45.384C162.376 45.384 160.754 44.36 159.09 42.312C157.469 40.264 156.488 38.28 156.146 36.36C155.89 36.8293 155.165 38.0667 153.97 40.072C152.776 42.0773 151.922 43.72 151.41 45L147.57 43.656C148.466 38.408 149.554 33.4587 150.834 28.808C152.157 24.1573 153.394 20.8933 154.546 19.016L157.17 19.848C156.402 21.8107 155.122 27.0373 153.33 35.528C155.677 30.7067 158.045 27.1867 160.434 24.968C162.824 22.7067 165.448 21.2133 168.306 20.488V24.712C165.234 24.84 162.269 26.9093 159.41 30.92C159.581 33.6933 160.392 35.9973 161.842 37.832C163.336 39.6667 164.744 40.584 166.066 40.584C166.706 40.584 168.093 39.688 170.226 37.896ZM193.051 25.992C194.161 27.8267 194.715 29.8533 194.715 32.072C194.715 35.528 193.521 38.6213 191.131 41.352C188.742 44.04 185.926 45.384 182.683 45.384C180.209 45.384 178.267 44.68 176.859 43.272C175.494 41.8213 174.811 39.8373 174.811 37.32C174.811 33.2667 176.39 29.64 179.547 26.44C182.705 23.1973 186.246 21.576 190.171 21.576C190.897 21.576 191.409 21.5973 191.707 21.64L191.899 23.752C188.486 23.752 185.649 24.7333 183.387 26.696C181.126 28.6587 179.995 31.176 179.995 34.248C179.995 36.0827 180.443 37.576 181.339 38.728C182.235 39.8373 183.537 40.392 185.243 40.392C186.993 40.392 188.379 39.624 189.403 38.088C190.427 36.552 190.939 34.76 190.939 32.712C190.939 30.6213 190.534 28.7227 189.723 27.016L193.051 25.992ZM204.929 24.904C203.905 29.768 203.371 33.3093 203.329 35.528C203.329 38.5573 204.203 40.072 205.953 40.072C207.83 40.072 209.515 39.2613 211.009 37.64C212.502 36.0187 213.249 34.12 213.249 31.944C213.249 29.768 212.438 28.68 210.817 28.68C210.347 28.68 209.323 28.9573 207.745 29.512L206.977 27.592C209.707 25.672 211.862 24.712 213.441 24.712C216.385 24.712 217.857 26.184 217.857 29.128C217.857 32.584 216.406 36.104 213.505 39.688C210.646 43.2293 207.638 45 204.481 45C201.025 45 199.297 42.5253 199.297 37.576C199.297 35.2293 199.958 31.3467 201.281 25.928L196.097 27.848L196.033 26.312C196.459 26.056 198.401 25.288 201.857 24.008C203.307 15.4747 205.313 9.50133 207.873 6.088C210.433 2.632 213.675 0.903999 217.601 0.903999C219.393 0.903999 220.822 1.48 221.889 2.632C222.955 3.784 223.489 5.27733 223.489 7.112C223.489 10.7813 221.803 14.216 218.433 17.416C215.062 20.5733 210.561 23.0693 204.929 24.904ZM205.313 22.984C209.025 21.2773 212.097 19.2293 214.529 16.84C216.961 14.4507 218.177 12.2747 218.177 10.312C218.177 9.288 217.878 8.456 217.281 7.816C216.683 7.176 215.937 6.856 215.041 6.856C213.249 6.856 211.478 8.11467 209.729 10.632C207.979 13.1493 206.507 17.2667 205.313 22.984ZM242.843 35.912L244.379 37.192C243.355 39.5387 241.712 41.416 239.451 42.824C237.189 44.232 234.992 44.936 232.859 44.936C230.768 44.936 229.019 44.2747 227.611 42.952C226.245 41.6293 225.563 39.816 225.563 37.512C225.563 35.208 226.565 32.712 228.571 30.024C230.576 27.336 233.157 25.1173 236.315 23.368C239.515 21.6187 242.651 20.744 245.723 20.744C246.149 20.744 246.789 20.7867 247.643 20.872L247.451 23.368C242.757 23.5813 238.853 25.0107 235.739 27.656C232.667 30.3013 231.131 33.1173 231.131 36.104C231.131 37.3413 231.515 38.344 232.283 39.112C233.051 39.88 234.053 40.264 235.291 40.264C237.253 40.264 239.771 38.8133 242.843 35.912ZM273.164 37.896L274.764 39.304C272.289 43.3573 269.665 45.384 266.892 45.384C265.313 45.384 263.692 44.36 262.028 42.312C260.406 40.264 259.425 38.28 259.084 36.36C258.828 36.8293 258.102 38.0667 256.908 40.072C255.713 42.0773 254.86 43.72 254.348 45L250.508 43.656C251.404 38.408 252.492 33.4587 253.772 28.808C255.094 24.1573 256.332 20.8933 257.484 19.016L260.108 19.848C259.34 21.8107 258.06 27.0373 256.268 35.528C258.614 30.7067 260.982 27.1867 263.372 24.968C265.761 22.7067 268.385 21.2133 271.244 20.488V24.712C268.172 24.84 265.206 26.9093 262.348 30.92C262.518 33.6933 263.329 35.9973 264.78 37.832C266.273 39.6667 267.681 40.584 269.004 40.584C269.644 40.584 271.03 39.688 273.164 37.896ZM305.81 37.512L307.154 38.6C306.429 40.392 305.277 41.9067 303.698 43.144C302.162 44.3813 300.754 45 299.474 45C298.237 45 297.256 44.5733 296.53 43.72C295.805 42.824 295.442 41.672 295.442 40.264C295.442 38.856 295.677 37.0427 296.146 34.824C294.141 37.9813 291.986 40.456 289.682 42.248C287.378 44.04 285.437 44.936 283.858 44.936C281.469 44.936 280.274 43.5067 280.274 40.648C280.274 37.7893 281.256 33.9493 283.218 29.128C285.224 24.264 286.653 21.4907 287.506 20.808L290.578 22.152C288.829 24.968 287.506 27.7413 286.61 30.472C285.714 33.2027 285.266 35.0373 285.266 35.976C285.266 36.872 285.544 37.5973 286.098 38.152C286.696 38.7067 287.378 38.984 288.146 38.984C289.853 38.984 291.965 37.4267 294.482 34.312C297.042 31.1547 299.645 26.4613 302.29 20.232L305.554 21.704C305.469 22.0453 304.488 24.52 302.61 29.128C300.776 33.736 299.858 36.5093 299.858 37.448C299.858 38.344 300.05 39.0267 300.434 39.496C300.861 39.9653 301.266 40.2 301.65 40.2C302.077 40.2 302.397 40.1787 302.61 40.136C302.824 40.0933 303.037 40.008 303.25 39.88C303.464 39.752 303.634 39.6453 303.762 39.56C303.933 39.4747 304.125 39.3253 304.338 39.112L304.786 38.6C304.914 38.5147 305.085 38.344 305.298 38.088C305.554 37.7893 305.725 37.5973 305.81 37.512ZM337.234 37.512L338.578 38.6C337.853 40.392 336.701 41.9067 335.122 43.144C333.586 44.3813 332.178 45 330.898 45C329.661 45 328.68 44.5733 327.954 43.72C327.229 42.824 326.866 41.672 326.866 40.264C326.866 38.856 327.101 37.0427 327.57 34.824C325.565 37.9813 323.41 40.456 321.106 42.248C318.802 44.04 316.861 44.936 315.282 44.936C312.893 44.936 311.698 43.5067 311.698 40.648C311.698 37.7893 312.68 33.9493 314.642 29.128C316.648 24.264 318.077 21.4907 318.93 20.808L322.002 22.152C320.253 24.968 318.93 27.7413 318.034 30.472C317.138 33.2027 316.69 35.0373 316.69 35.976C316.69 36.872 316.968 37.5973 317.522 38.152C318.12 38.7067 318.802 38.984 319.57 38.984C321.277 38.984 323.389 37.4267 325.906 34.312C328.466 31.1547 331.069 26.4613 333.714 20.232L336.978 21.704C336.893 22.0453 335.912 24.52 334.034 29.128C332.2 33.736 331.282 36.5093 331.282 37.448C331.282 38.344 331.474 39.0267 331.858 39.496C332.285 39.9653 332.69 40.2 333.074 40.2C333.501 40.2 333.821 40.1787 334.034 40.136C334.248 40.0933 334.461 40.008 334.674 39.88C334.888 39.752 335.058 39.6453 335.186 39.56C335.357 39.4747 335.549 39.3253 335.762 39.112L336.274 38.6C336.36 38.5147 336.509 38.344 336.722 38.088C336.978 37.7893 337.149 37.5973 337.234 37.512ZM333.522 13.128L335.442 14.152C334.589 15.4747 333.48 16.648 332.114 17.672C330.792 18.696 329.469 19.208 328.146 19.208C326.824 19.208 325.437 18.7173 323.986 17.736C322.536 16.712 321.362 15.688 320.466 14.664L322.514 12.936C324.733 15.112 326.546 16.2 327.954 16.2C330.13 16.2 331.986 15.176 333.522 13.128Z" fill="#111111"/>
</svg>
